<svg xmlns="http://www.w3.org/2000/svg" viewBox="0 0 48 48">
  <path fill="#EA4335" d="M24 9.5c3.5 0 6 .9 7.3 1.6l5.4-5.4C33.3 3 29.1 2 24 2 14.9 2 7.1 7.8 3.6 16.1l6.6 5.1C11.8 15.4 17.3 9.5 24 9.5z"/>
  <path fill="#4285F4" d="M46.1 24.5c0-1.6-.1-3.1-.4-4.6H24v9h12.4c-.5 2.8-2 5.1-4.2 6.7l6.6 5.1c3.9-3.6 6.1-9 6.1-15.2z"/>
  <path fill="#FBBC05" d="M10.2 28.4c-.5-1.5-.8-3-.8-4.7s.3-3.2.8-4.7L3.6 16C2.4 18.6 2 21.2 2 23.8s.4 5.2 1.6 7.8l6.6-3.2z"/>
  <path fill="#34A853" d="M24 46c6.5 0 12-2.1 16.1-5.7l-6.6-5.1c-2 1.4-4.6 2.2-7.5 2.2-6.7 0-12.2-4.6-14.2-10.9l-6.6 5.1C7.1 40.2 14.9 46 24 46z"/>
  <path fill="none" d="M2 2h44v44H2z"/>
</svg>


